<?xml version="1.0" encoding="utf-8"?>
<!-- Generator: Adobe Illustrator 16.0.3, SVG Export Plug-In . SVG Version: 6.00 Build 0)  -->
<!DOCTYPE svg PUBLIC "-//W3C//DTD SVG 1.1//EN" "http://www.w3.org/Graphics/SVG/1.1/DTD/svg11.dtd">
<svg version="1.1" id="Vrstva_1" xmlns="http://www.w3.org/2000/svg" xmlns:xlink="http://www.w3.org/1999/xlink" x="0px" y="0px"
	 width="600px" height="220px" viewBox="0 0 600 220" enable-background="new 0 0 600 220" xml:space="preserve">
<g>
	<path fill="#025DA1" d="M126.978,200.971c-4.501,0-10.788-2.604-13.971-5.787l-41.715-41.716c-3.183-3.183-5.787-9.47-5.787-13.971
		V80.503c0-4.501,2.604-10.788,5.787-13.971l41.715-41.716c3.183-3.183,9.47-5.787,13.971-5.787h58.995
		c4.501,0,10.788,2.604,13.971,5.787l41.715,41.716c3.183,3.183,5.787,9.47,5.787,13.971v58.994c0,4.501-2.604,10.788-5.787,13.971
		l-41.715,41.716c-3.183,3.183-9.469,5.787-13.971,5.787H126.978z"/>
</g>
<path fill-rule="evenodd" clip-rule="evenodd" fill="#FFFFFF" d="M201.23,76.07c0-7.532-6.108-13.64-13.64-13.64
	s-13.641,6.107-13.641,13.64c0,4.226,1.923,8.002,4.941,10.504l-17.006,46.476c-0.706-0.125-1.429-0.202-2.17-0.202
	c-1.323,0-2.595,0.213-3.79,0.598l-20.984-28.777c2.067-1.857,3.375-4.542,3.375-7.54c0-5.603-4.541-10.144-10.143-10.144
	c-5.604-0.002-10.145,4.539-10.145,10.144c0,4.03,2.354,7.5,5.758,9.137l-5.209,21.482c-0.098-0.004-0.194-0.015-0.292-0.015
	c-3.627,0-6.566,2.938-6.564,6.564c0,3.625,2.937,6.563,6.564,6.563c3.624,0,6.564-2.938,6.564-6.563
	c0-1.909-0.819-3.621-2.118-4.82l6.608-22.276c0.139-0.016,0.274-0.042,0.411-0.063l20.22,30.484
	c-1.634,2.096-2.617,4.724-2.617,7.587c0.001,6.827,5.537,12.36,12.362,12.36c6.824,0.003,12.36-5.533,12.36-12.36
	c0-3.439-1.408-6.549-3.676-8.79l19.327-46.715C195.194,89.631,201.23,83.558,201.23,76.07z"/>
<g>
	<path fill="#FFFFFF" d="M341.375,97.967c0.441,0.486,0.662,1.06,0.662,1.722c0,0.972-0.486,1.787-1.457,2.449
		c-0.441,0.31-0.949,0.464-1.521,0.464c-1.018,0-1.877-0.397-2.582-1.191c-1.105-1.192-2.309-2.063-3.609-2.615
		c-1.303-0.552-2.791-0.828-4.469-0.828c-3.398,0-6.156,1.138-8.275,3.41c-2.119,2.273-3.178,5.286-3.178,9.037
		c0,2.382,0.496,4.513,1.488,6.388c0.994,1.877,2.385,3.344,4.172,4.404c1.787,1.059,3.828,1.588,6.125,1.588
		c3,0,5.428-0.771,7.281-2.316c0.838-0.619,1.656-0.928,2.451-0.928c0.617,0,1.191,0.199,1.721,0.596
		c0.838,0.707,1.258,1.502,1.258,2.383c0,0.662-0.266,1.26-0.795,1.789c-3.178,2.957-7.15,4.436-11.916,4.436
		c-3.488,0-6.621-0.795-9.402-2.383c-2.781-1.59-4.955-3.785-6.521-6.588c-1.567-2.803-2.35-5.926-2.35-9.369
		c0-3.531,0.761-6.697,2.283-9.501c1.523-2.802,3.652-4.987,6.389-6.555c2.736-1.565,5.826-2.35,9.27-2.35
		C333.605,92.009,337.932,93.996,341.375,97.967z"/>
	<path fill="#FFFFFF" d="M385.799,77.708c0.619,0.618,0.928,1.435,0.928,2.449v30.19c0,3.443-0.807,6.566-2.416,9.369
		c-1.613,2.803-3.797,5.01-6.555,6.621c-2.76,1.611-5.838,2.416-9.236,2.416s-6.5-0.805-9.303-2.416s-4.998-3.818-6.586-6.621
		c-1.59-2.803-2.385-5.926-2.385-9.369c0-3.442,0.738-6.564,2.219-9.368c1.479-2.803,3.508-4.999,6.09-6.588
		s5.463-2.383,8.641-2.383c2.559,0,4.943,0.529,7.15,1.589s4.082,2.538,5.627,4.436V80.158c0-1.015,0.32-1.831,0.961-2.449
		c0.639-0.617,1.445-0.927,2.416-0.927C384.365,76.782,385.182,77.091,385.799,77.708z M374.512,121.174
		c1.787-1.082,3.188-2.572,4.203-4.471c1.016-1.896,1.523-4.016,1.523-6.355c0-2.339-0.508-4.446-1.523-6.322
		s-2.416-3.354-4.203-4.437c-1.787-1.081-3.785-1.622-5.992-1.622s-4.203,0.541-5.992,1.622c-1.787,1.082-3.199,2.561-4.236,4.437
		s-1.557,3.983-1.557,6.322c0,2.339,0.52,4.458,1.557,6.355c1.037,1.898,2.449,3.389,4.236,4.471
		c1.789,1.082,3.785,1.621,5.992,1.621S372.725,122.256,374.512,121.174z"/>
	<path fill="#FFFFFF" d="M424.861,93.929c2.426,1.324,4.324,3.255,5.693,5.793c1.367,2.538,2.053,5.595,2.053,9.17v16.286
		c0,0.973-0.322,1.777-0.961,2.418c-0.641,0.639-1.445,0.959-2.416,0.959c-0.973,0-1.777-0.32-2.416-0.959
		c-0.641-0.641-0.961-1.445-0.961-2.418v-16.286c0-3.575-0.961-6.278-2.881-8.11c-1.92-1.831-4.469-2.748-7.646-2.748
		c-1.854,0-3.541,0.376-5.064,1.126c-1.523,0.751-2.715,1.766-3.574,3.045c-0.861,1.281-1.291,2.715-1.291,4.304v18.669
		c0,0.973-0.311,1.777-0.928,2.418c-0.619,0.639-1.436,0.959-2.449,0.959c-0.973,0-1.777-0.32-2.418-0.959
		c-0.639-0.641-0.959-1.445-0.959-2.418V95.65c0-1.015,0.32-1.83,0.959-2.449c0.641-0.617,1.445-0.927,2.418-0.927
		c1.014,0,1.83,0.31,2.449,0.927c0.617,0.619,0.928,1.435,0.928,2.449v0.729c1.412-1.412,3.088-2.504,5.031-3.277
		c1.941-0.771,4.016-1.158,6.223-1.158C419.697,91.943,422.432,92.605,424.861,93.929z"/>
	<path fill="#FFFFFF" d="M453.461,85.322c-1.5,1.634-2.25,3.797-2.25,6.488v1.788h6.752c0.928,0,1.678,0.265,2.252,0.794
		c0.572,0.53,0.859,1.236,0.859,2.119c0,0.794-0.287,1.456-0.859,1.986c-0.574,0.529-1.324,0.794-2.252,0.794h-6.752v25.82
		c0,1.018-0.311,1.832-0.928,2.451c-0.619,0.617-1.479,0.926-2.582,0.926c-0.883,0-1.645-0.309-2.283-0.926
		c-0.641-0.619-0.961-1.434-0.961-2.451v-25.82h-2.848c-0.926,0-1.678-0.265-2.25-0.794c-0.574-0.53-0.861-1.192-0.861-1.986
		c0-0.883,0.287-1.589,0.861-2.119c0.572-0.529,1.324-0.794,2.25-0.794h2.848v-1.126c0-3.133,0.629-5.881,1.887-8.242
		s3.023-4.193,5.297-5.495s4.865-1.953,7.779-1.953c0.971,0,1.775,0.287,2.416,0.86c0.639,0.574,0.961,1.303,0.961,2.185
		c0,0.884-0.322,1.612-0.961,2.186c-0.641,0.574-1.445,0.86-2.416,0.86C456.947,82.873,454.961,83.69,453.461,85.322z"/>
	<path fill="#FFFFFF" d="M469.252,121.703c0.904,0.904,1.357,1.996,1.357,3.277c0,1.236-0.443,2.307-1.324,3.211
		c-0.885,0.904-1.965,1.357-3.244,1.357c-1.236,0-2.309-0.453-3.211-1.357c-0.906-0.904-1.357-1.975-1.357-3.211
		c0-1.281,0.451-2.373,1.357-3.277c0.902-0.904,1.975-1.357,3.211-1.357C467.275,120.346,468.346,120.799,469.252,121.703z"/>
	<path fill="#FFFFFF" d="M486.994,78.933c0.859,0.861,1.291,1.887,1.291,3.079c0,1.191-0.432,2.218-1.291,3.078
		c-0.861,0.86-1.889,1.291-3.08,1.291s-2.217-0.431-3.078-1.291s-1.291-1.887-1.291-3.078c0-1.192,0.43-2.218,1.291-3.079
		c0.861-0.86,1.887-1.291,3.078-1.291S486.133,78.073,486.994,78.933z M481.498,93.201c0.639-0.617,1.445-0.927,2.416-0.927
		c1.016,0,1.832,0.31,2.451,0.927c0.617,0.619,0.926,1.435,0.926,2.449v29.461c0,0.973-0.309,1.777-0.926,2.418
		c-0.619,0.641-1.436,0.959-2.451,0.959c-0.971,0-1.777-0.318-2.416-0.959c-0.641-0.641-0.959-1.445-0.959-2.418V95.65
		C480.539,94.635,480.857,93.82,481.498,93.201z"/>
	<path fill="#FFFFFF" d="M525.658,94.359c2.758,1.567,4.92,3.741,6.488,6.521c1.566,2.781,2.35,5.959,2.35,9.534
		c0,3.531-0.773,6.687-2.316,9.468c-1.547,2.779-3.697,4.955-6.455,6.52c-2.76,1.568-5.904,2.352-9.436,2.352
		s-6.686-0.783-9.467-2.352c-2.781-1.564-4.943-3.74-6.488-6.52c-1.545-2.781-2.318-5.938-2.318-9.468
		c0-3.575,0.773-6.753,2.318-9.534c1.545-2.78,3.707-4.954,6.488-6.521c2.781-1.565,5.936-2.35,9.467-2.35
		C519.775,92.009,522.898,92.793,525.658,94.359z M510.232,99.556c-1.789,1.06-3.189,2.539-4.205,4.437
		c-1.016,1.898-1.523,4.038-1.523,6.422c0,2.382,0.508,4.513,1.523,6.388c1.016,1.877,2.416,3.344,4.205,4.404
		c1.787,1.059,3.807,1.588,6.057,1.588c2.252,0,4.271-0.529,6.059-1.588c1.787-1.061,3.178-2.527,4.17-4.404
		c0.994-1.875,1.49-4.006,1.49-6.388c0-2.384-0.496-4.523-1.49-6.422c-0.992-1.897-2.383-3.377-4.17-4.437
		c-1.787-1.059-3.807-1.589-6.059-1.589C514.039,97.967,512.02,98.498,510.232,99.556z"/>
</g>
</svg>
